<svg width="92" height="91" viewBox="0 0 92 91" fill="none" xmlns="http://www.w3.org/2000/svg">
<g filter="url(#filter0_di_20142_51007)">
<rect x="21.9297" y="39.3926" width="28.4457" height="39.0827" rx="2" transform="rotate(-48.7686 21.9297 39.3926)" fill="#EFE3CB"/>
<rect x="23.3408" y="39.2996" width="26.4457" height="37.0827" rx="1" transform="rotate(-48.7686 23.3408 39.2996)" stroke="url(#paint0_radial_20142_51007)" stroke-width="2"/>
</g>
<path d="M44.3387 47C44.3387 45.4427 44.6854 43.88 45.3787 42.312C46.0827 40.744 47.1814 39.2187 48.6747 37.736H42.2907V35.608H51.3787V37.576C50.5787 38.376 49.9067 39.144 49.3627 39.88C48.8294 40.6053 48.392 41.3413 48.0507 42.088C47.72 42.824 47.4694 43.592 47.2987 44.392C47.1387 45.192 47.0374 46.0613 46.9947 47H44.3387Z" fill="#705622"/>
<defs>
<filter id="filter0_di_20142_51007" x="0.153906" y="0.222265" width="91.6961" height="90.7073" filterUnits="userSpaceOnUse" color-interpolation-filters="sRGB">
<feFlood flood-opacity="0" result="BackgroundImageFix"/>
<feColorMatrix in="SourceAlpha" type="matrix" values="0 0 0 0 0 0 0 0 0 0 0 0 0 0 0 0 0 0 127 0" result="hardAlpha"/>
<feOffset dy="4"/>
<feGaussianBlur stdDeviation="11.3"/>
<feComposite in2="hardAlpha" operator="out"/>
<feColorMatrix type="matrix" values="0 0 0 0 1 0 0 0 0 0.830833 0 0 0 0 0.395833 0 0 0 0.47 0"/>
<feBlend mode="normal" in2="BackgroundImageFix" result="effect1_dropShadow_20142_51007"/>
<feBlend mode="normal" in="SourceGraphic" in2="effect1_dropShadow_20142_51007" result="shape"/>
<feColorMatrix in="SourceAlpha" type="matrix" values="0 0 0 0 0 0 0 0 0 0 0 0 0 0 0 0 0 0 127 0" result="hardAlpha"/>
<feOffset dx="15" dy="-8"/>
<feGaussianBlur stdDeviation="33.55"/>
<feComposite in2="hardAlpha" operator="arithmetic" k2="-1" k3="1"/>
<feColorMatrix type="matrix" values="0 0 0 0 1 0 0 0 0 0.68975 0 0 0 0 0.0875 0 0 0 0.5 0"/>
<feBlend mode="normal" in2="shape" result="effect2_innerShadow_20142_51007"/>
</filter>
<radialGradient id="paint0_radial_20142_51007" cx="0" cy="0" r="1" gradientUnits="userSpaceOnUse" gradientTransform="translate(36.1525 58.9339) rotate(86.8744) scale(23.4491 32.2177)">
<stop stop-color="#FFD37E"/>
<stop offset="1" stop-color="#705623"/>
</radialGradient>
</defs>
</svg>
