<svg width="40" height="40" viewBox="0 0 40 40" fill="none" xmlns="http://www.w3.org/2000/svg">
<foreignObject x="-23.8889" y="-23.8889" width="87.7778" height="87.7778"><div xmlns="http://www.w3.org/1999/xhtml" style="backdrop-filter:blur(11.94px);clip-path:url(#bgblur_0_27007_22239_clip_path);height:100%;width:100%"></div></foreignObject><g filter="url(#filter0_ii_27007_22239)" data-figma-bg-blur-radius="23.8889">
<rect width="40" height="40" rx="8" fill="white" fill-opacity="0.02"/>
<foreignObject x="3.7263" y="4.10325" width="30.4029" height="31.94"><div xmlns="http://www.w3.org/1999/xhtml" style="backdrop-filter:blur(6.43px);clip-path:url(#bgblur_1_27007_22239_clip_path);height:100%;width:100%"></div></foreignObject><g filter="url(#filter1_i_27007_22239)" data-figma-bg-blur-radius="12.8655">
<path d="M19.4554 17.026C19.1083 16.9764 18.7115 16.9268 18.3644 17.026C17.5213 17.274 16.9263 18.0179 16.6783 19.1089C16.5295 19.9024 16.5791 20.795 16.7775 21.4893C17.1246 22.5803 17.9181 23.225 18.9099 23.1754C19.8522 23.1754 20.6456 22.5803 21.0424 21.4893C21.2903 20.795 21.3399 19.9024 21.1416 19.1089C20.8936 18.0179 20.2489 17.2244 19.4554 17.026Z" fill="white" fill-opacity="0.02"/>
</g>
<foreignObject x="-4.5731" y="-4.5731" width="49.5466" height="49.5446"><div xmlns="http://www.w3.org/1999/xhtml" style="backdrop-filter:blur(6.29px);clip-path:url(#bgblur_2_27007_22239_clip_path);height:100%;width:100%"></div></foreignObject><g filter="url(#filter2_ii_27007_22239)" data-figma-bg-blur-radius="12.5731">
<path d="M20.1996 8C13.4551 8 8 13.4551 8 20.1996C8 26.9441 13.4551 32.3992 20.1996 32.3992C26.9441 32.3992 32.3992 26.9441 32.3992 20.1996C32.4488 13.4551 26.9441 8 20.1996 8ZM14.0998 24.4149H12.5129V18.2655H14.0998V24.4149ZM13.3063 17.4225C12.86 17.4225 12.4633 17.0257 12.4633 16.5794C12.4633 16.1331 12.86 15.7364 13.3063 15.7364C13.7527 15.7364 14.1494 16.1331 14.1494 16.5794C14.1494 17.0257 13.7527 17.4225 13.3063 17.4225ZM20.6459 24.0678C20.2492 24.2662 19.9021 24.3654 19.307 24.4149C19.0094 24.4645 18.7614 24.4149 18.4639 24.4149C17.8688 24.3654 17.5216 24.2662 17.1249 24.0678C15.7363 23.4231 14.9429 21.9849 14.9429 20.15C14.9429 18.3151 15.7363 16.8274 17.1249 16.1331C17.6704 15.8851 18.2159 15.7364 18.8606 15.7364C19.5053 15.7364 20.0508 15.8851 20.5963 16.1331C21.9849 16.8274 22.7784 18.3151 22.7784 20.15C22.828 21.9849 22.0345 23.4231 20.6459 24.0678ZM28.4815 22.9272C28.0847 23.7702 27.2416 24.3158 26.0514 24.4149C25.8035 24.4645 25.258 24.4645 25.1092 24.4149C24.4149 24.3158 23.7702 24.2166 23.2247 23.919L23.5718 22.6792C24.4645 22.9768 25.7043 23.3735 26.5474 23.0263C26.9937 22.7784 27.2417 22.3817 27.1425 21.8857C27.0433 21.3402 26.6961 21.0427 25.6547 20.6459C24.5141 20.1996 23.8198 19.7037 23.5223 19.0094C23.3735 18.6623 23.3239 18.2159 23.4231 17.8688C23.5719 16.8274 24.4149 16.0835 25.6547 15.8355C26.0019 15.7859 26.7953 15.7859 27.1921 15.8355C27.7376 15.9347 28.3823 16.1331 28.3823 16.2323C28.3823 16.2819 28.0351 17.4225 28.0351 17.4225C27.4896 17.2241 26.8945 17.0753 26.349 17.0257C25.6051 17.0257 24.8117 17.4721 24.9604 18.216C25.0596 18.7119 25.3572 18.9102 26.4978 19.4061C27.3408 19.7533 27.7376 20.0013 28.0847 20.3484C28.5806 20.8443 28.7294 21.3898 28.7294 21.9353C28.7294 22.3321 28.6798 22.5304 28.4815 22.9272Z" fill="white" fill-opacity="0.02"/>
<path d="M13.3063 17.4225C12.86 17.4225 12.4633 17.0257 12.4633 16.5794C12.4633 16.1331 12.86 15.7364 13.3063 15.7364C13.7527 15.7364 14.1494 16.1331 14.1494 16.5794C14.1494 17.0257 13.7527 17.4225 13.3063 17.4225Z" fill="#FFD27A"/>
<path d="M14.0998 24.4149H12.5129V18.2655H14.0998V24.4149Z" fill="#FFD27A"/>
<path d="M20.6459 24.0678C20.2492 24.2662 19.9021 24.3654 19.307 24.4149C19.0094 24.4645 18.7614 24.4149 18.4639 24.4149C17.8688 24.3654 17.5216 24.2662 17.1249 24.0678C15.7363 23.4231 14.9429 21.9849 14.9429 20.15C14.9429 18.3151 15.7363 16.8274 17.1249 16.1331C17.6704 15.8851 18.2159 15.7364 18.8606 15.7364C19.5053 15.7364 20.0508 15.8851 20.5963 16.1331C21.9849 16.8274 22.7784 18.3151 22.7784 20.15C22.828 21.9849 22.0345 23.4231 20.6459 24.0678Z" fill="#FFD27A"/>
<path d="M28.4815 22.9272C28.0847 23.7702 27.2416 24.3158 26.0514 24.4149C25.8035 24.4645 25.258 24.4645 25.1092 24.4149C24.4149 24.3158 23.7702 24.2166 23.2247 23.919L23.5718 22.6792C24.4645 22.9768 25.7043 23.3735 26.5474 23.0263C26.9937 22.7784 27.2417 22.3817 27.1425 21.8857C27.0433 21.3402 26.6961 21.0427 25.6547 20.6459C24.5141 20.1996 23.8198 19.7037 23.5223 19.0094C23.3735 18.6623 23.3239 18.2159 23.4231 17.8688C23.5719 16.8274 24.4149 16.0835 25.6547 15.8355C26.0019 15.7859 26.7953 15.7859 27.1921 15.8355C27.7376 15.9347 28.3823 16.1331 28.3823 16.2323C28.3823 16.2819 28.0351 17.4225 28.0351 17.4225C27.4896 17.2241 26.8945 17.0753 26.349 17.0257C25.6051 17.0257 24.8117 17.4721 24.9604 18.216C25.0596 18.7119 25.3572 18.9102 26.4978 19.4061C27.3408 19.7533 27.7376 20.0013 28.0847 20.3484C28.5806 20.8443 28.7294 21.3898 28.7294 21.9353C28.7294 22.3321 28.6798 22.5304 28.4815 22.9272Z" fill="#FFD27A"/>
</g>
</g>
<defs>
<filter id="filter0_ii_27007_22239" x="-23.8889" y="-23.8889" width="87.7778" height="87.7778" filterUnits="userSpaceOnUse" color-interpolation-filters="sRGB">
<feFlood flood-opacity="0" result="BackgroundImageFix"/>
<feBlend mode="normal" in="SourceGraphic" in2="BackgroundImageFix" result="shape"/>
<feColorMatrix in="SourceAlpha" type="matrix" values="0 0 0 0 0 0 0 0 0 0 0 0 0 0 0 0 0 0 127 0" result="hardAlpha"/>
<feOffset dy="1.11111"/>
<feGaussianBlur stdDeviation="0.555556"/>
<feComposite in2="hardAlpha" operator="arithmetic" k2="-1" k3="1"/>
<feColorMatrix type="matrix" values="0 0 0 0 1 0 0 0 0 1 0 0 0 0 1 0 0 0 0.15 0"/>
<feBlend mode="normal" in2="shape" result="effect1_innerShadow_27007_22239"/>
<feColorMatrix in="SourceAlpha" type="matrix" values="0 0 0 0 0 0 0 0 0 0 0 0 0 0 0 0 0 0 127 0" result="hardAlpha"/>
<feOffset/>
<feGaussianBlur stdDeviation="9.44444"/>
<feComposite in2="hardAlpha" operator="arithmetic" k2="-1" k3="1"/>
<feColorMatrix type="matrix" values="0 0 0 0 1 0 0 0 0 1 0 0 0 0 1 0 0 0 0.05 0"/>
<feBlend mode="normal" in2="effect1_innerShadow_27007_22239" result="effect2_innerShadow_27007_22239"/>
</filter>
<clipPath id="bgblur_0_27007_22239_clip_path" transform="translate(23.8889 23.8889)"><rect width="40" height="40" rx="8"/>
</clipPath><filter id="filter1_i_27007_22239" x="3.7263" y="4.10325" width="30.4029" height="31.94" filterUnits="userSpaceOnUse" color-interpolation-filters="sRGB">
<feFlood flood-opacity="0" result="BackgroundImageFix"/>
<feBlend mode="normal" in="SourceGraphic" in2="BackgroundImageFix" result="shape"/>
<feColorMatrix in="SourceAlpha" type="matrix" values="0 0 0 0 0 0 0 0 0 0 0 0 0 0 0 0 0 0 127 0" result="hardAlpha"/>
<feOffset dy="0.292398"/>
<feGaussianBlur stdDeviation="0.146199"/>
<feComposite in2="hardAlpha" operator="arithmetic" k2="-1" k3="1"/>
<feColorMatrix type="matrix" values="0 0 0 0 1 0 0 0 0 1 0 0 0 0 1 0 0 0 0.3 0"/>
<feBlend mode="normal" in2="shape" result="effect1_innerShadow_27007_22239"/>
</filter>
<clipPath id="bgblur_1_27007_22239_clip_path" transform="translate(-3.7263 -4.10325)"><path d="M19.4554 17.026C19.1083 16.9764 18.7115 16.9268 18.3644 17.026C17.5213 17.274 16.9263 18.0179 16.6783 19.1089C16.5295 19.9024 16.5791 20.795 16.7775 21.4893C17.1246 22.5803 17.9181 23.225 18.9099 23.1754C19.8522 23.1754 20.6456 22.5803 21.0424 21.4893C21.2903 20.795 21.3399 19.9024 21.1416 19.1089C20.8936 18.0179 20.2489 17.2244 19.4554 17.026Z"/>
</clipPath><filter id="filter2_ii_27007_22239" x="-4.5731" y="-4.5731" width="49.5466" height="49.5446" filterUnits="userSpaceOnUse" color-interpolation-filters="sRGB">
<feFlood flood-opacity="0" result="BackgroundImageFix"/>
<feBlend mode="normal" in="SourceGraphic" in2="BackgroundImageFix" result="shape"/>
<feColorMatrix in="SourceAlpha" type="matrix" values="0 0 0 0 0 0 0 0 0 0 0 0 0 0 0 0 0 0 127 0" result="hardAlpha"/>
<feOffset dy="0.584795"/>
<feGaussianBlur stdDeviation="0.292398"/>
<feComposite in2="hardAlpha" operator="arithmetic" k2="-1" k3="1"/>
<feColorMatrix type="matrix" values="0 0 0 0 1 0 0 0 0 1 0 0 0 0 1 0 0 0 0.15 0"/>
<feBlend mode="normal" in2="shape" result="effect1_innerShadow_27007_22239"/>
<feColorMatrix in="SourceAlpha" type="matrix" values="0 0 0 0 0 0 0 0 0 0 0 0 0 0 0 0 0 0 127 0" result="hardAlpha"/>
<feOffset/>
<feGaussianBlur stdDeviation="4.97076"/>
<feComposite in2="hardAlpha" operator="arithmetic" k2="-1" k3="1"/>
<feColorMatrix type="matrix" values="0 0 0 0 1 0 0 0 0 1 0 0 0 0 1 0 0 0 0.05 0"/>
<feBlend mode="normal" in2="effect1_innerShadow_27007_22239" result="effect2_innerShadow_27007_22239"/>
</filter>
<clipPath id="bgblur_2_27007_22239_clip_path" transform="translate(4.5731 4.5731)"><path d="M20.1996 8C13.4551 8 8 13.4551 8 20.1996C8 26.9441 13.4551 32.3992 20.1996 32.3992C26.9441 32.3992 32.3992 26.9441 32.3992 20.1996C32.4488 13.4551 26.9441 8 20.1996 8ZM14.0998 24.4149H12.5129V18.2655H14.0998V24.4149ZM13.3063 17.4225C12.86 17.4225 12.4633 17.0257 12.4633 16.5794C12.4633 16.1331 12.86 15.7364 13.3063 15.7364C13.7527 15.7364 14.1494 16.1331 14.1494 16.5794C14.1494 17.0257 13.7527 17.4225 13.3063 17.4225ZM20.6459 24.0678C20.2492 24.2662 19.9021 24.3654 19.307 24.4149C19.0094 24.4645 18.7614 24.4149 18.4639 24.4149C17.8688 24.3654 17.5216 24.2662 17.1249 24.0678C15.7363 23.4231 14.9429 21.9849 14.9429 20.15C14.9429 18.3151 15.7363 16.8274 17.1249 16.1331C17.6704 15.8851 18.2159 15.7364 18.8606 15.7364C19.5053 15.7364 20.0508 15.8851 20.5963 16.1331C21.9849 16.8274 22.7784 18.3151 22.7784 20.15C22.828 21.9849 22.0345 23.4231 20.6459 24.0678ZM28.4815 22.9272C28.0847 23.7702 27.2416 24.3158 26.0514 24.4149C25.8035 24.4645 25.258 24.4645 25.1092 24.4149C24.4149 24.3158 23.7702 24.2166 23.2247 23.919L23.5718 22.6792C24.4645 22.9768 25.7043 23.3735 26.5474 23.0263C26.9937 22.7784 27.2417 22.3817 27.1425 21.8857C27.0433 21.3402 26.6961 21.0427 25.6547 20.6459C24.5141 20.1996 23.8198 19.7037 23.5223 19.0094C23.3735 18.6623 23.3239 18.2159 23.4231 17.8688C23.5719 16.8274 24.4149 16.0835 25.6547 15.8355C26.0019 15.7859 26.7953 15.7859 27.1921 15.8355C27.7376 15.9347 28.3823 16.1331 28.3823 16.2323C28.3823 16.2819 28.0351 17.4225 28.0351 17.4225C27.4896 17.2241 26.8945 17.0753 26.349 17.0257C25.6051 17.0257 24.8117 17.4721 24.9604 18.216C25.0596 18.7119 25.3572 18.9102 26.4978 19.4061C27.3408 19.7533 27.7376 20.0013 28.0847 20.3484C28.5806 20.8443 28.7294 21.3898 28.7294 21.9353C28.7294 22.3321 28.6798 22.5304 28.4815 22.9272Z"/>
<path d="M13.3063 17.4225C12.86 17.4225 12.4633 17.0257 12.4633 16.5794C12.4633 16.1331 12.86 15.7364 13.3063 15.7364C13.7527 15.7364 14.1494 16.1331 14.1494 16.5794C14.1494 17.0257 13.7527 17.4225 13.3063 17.4225Z"/>
<path d="M14.0998 24.4149H12.5129V18.2655H14.0998V24.4149Z"/>
<path d="M20.6459 24.0678C20.2492 24.2662 19.9021 24.3654 19.307 24.4149C19.0094 24.4645 18.7614 24.4149 18.4639 24.4149C17.8688 24.3654 17.5216 24.2662 17.1249 24.0678C15.7363 23.4231 14.9429 21.9849 14.9429 20.15C14.9429 18.3151 15.7363 16.8274 17.1249 16.1331C17.6704 15.8851 18.2159 15.7364 18.8606 15.7364C19.5053 15.7364 20.0508 15.8851 20.5963 16.1331C21.9849 16.8274 22.7784 18.3151 22.7784 20.15C22.828 21.9849 22.0345 23.4231 20.6459 24.0678Z"/>
<path d="M28.4815 22.9272C28.0847 23.7702 27.2416 24.3158 26.0514 24.4149C25.8035 24.4645 25.258 24.4645 25.1092 24.4149C24.4149 24.3158 23.7702 24.2166 23.2247 23.919L23.5718 22.6792C24.4645 22.9768 25.7043 23.3735 26.5474 23.0263C26.9937 22.7784 27.2417 22.3817 27.1425 21.8857C27.0433 21.3402 26.6961 21.0427 25.6547 20.6459C24.5141 20.1996 23.8198 19.7037 23.5223 19.0094C23.3735 18.6623 23.3239 18.2159 23.4231 17.8688C23.5719 16.8274 24.4149 16.0835 25.6547 15.8355C26.0019 15.7859 26.7953 15.7859 27.1921 15.8355C27.7376 15.9347 28.3823 16.1331 28.3823 16.2323C28.3823 16.2819 28.0351 17.4225 28.0351 17.4225C27.4896 17.2241 26.8945 17.0753 26.349 17.0257C25.6051 17.0257 24.8117 17.4721 24.9604 18.216C25.0596 18.7119 25.3572 18.9102 26.4978 19.4061C27.3408 19.7533 27.7376 20.0013 28.0847 20.3484C28.5806 20.8443 28.7294 21.3898 28.7294 21.9353C28.7294 22.3321 28.6798 22.5304 28.4815 22.9272Z"/>
</clipPath></defs>
</svg>
