<svg width="484" height="183" viewBox="0 0 484 183" fill="none" xmlns="http://www.w3.org/2000/svg">
<path d="M-161.998 0.371094H645.22" stroke="white" stroke-opacity="0.16" stroke-width="0.742883"/>
<path d="M-161.998 23.5449H645.22" stroke="white" stroke-opacity="0.16" stroke-width="0.742883"/>
<path d="M-161.998 46.7227H645.22" stroke="white" stroke-opacity="0.16" stroke-width="0.742883"/>
<path d="M-161.998 69.8984H645.22" stroke="white" stroke-opacity="0.16" stroke-width="0.742883"/>
<path d="M-161.998 90.041H645.22" stroke="white" stroke-opacity="0.16" stroke-width="0.742883"/>
<path d="M-161.998 113.215H645.22" stroke="white" stroke-opacity="0.16" stroke-width="0.742883"/>
<path d="M-161.998 136.393H645.22" stroke="white" stroke-opacity="0.16" stroke-width="0.742883"/>
<path d="M-161.998 159.568H645.22" stroke="white" stroke-opacity="0.16" stroke-width="0.742883"/>
<path d="M-163.998 182.35H643.22" stroke="white" stroke-opacity="0.16" stroke-width="0.742883"/>
<path d="M2.82227 182.35L2.82227 0.349619" stroke="white" stroke-opacity="0.16" stroke-width="0.742883"/>
<path d="M26.6562 182.35L26.6563 0.349619" stroke="white" stroke-opacity="0.16" stroke-width="0.742883"/>
<path d="M50.4961 182.35L50.4961 0.349619" stroke="white" stroke-opacity="0.16" stroke-width="0.742883"/>
<path d="M73.6855 182.35V0.349619" stroke="white" stroke-opacity="0.16" stroke-width="0.742883"/>
<path d="M96.5996 182.35V0.349619" stroke="white" stroke-opacity="0.16" stroke-width="0.742883"/>
<path d="M119.514 182.35V0.349619" stroke="white" stroke-opacity="0.16" stroke-width="0.742883"/>
<path d="M142.428 182.35V0.349619" stroke="white" stroke-opacity="0.16" stroke-width="0.742883"/>
<path d="M165.34 182.35V0.349619" stroke="white" stroke-opacity="0.16" stroke-width="0.742883"/>
<path d="M188.254 182.35V0.349619" stroke="white" stroke-opacity="0.16" stroke-width="0.742883"/>
<path d="M211.168 182.35V0.349619" stroke="white" stroke-opacity="0.16" stroke-width="0.742883"/>
<path d="M234.082 182.35V0.349619" stroke="white" stroke-opacity="0.16" stroke-width="0.742883"/>
<path d="M256.996 182.35V0.349619" stroke="white" stroke-opacity="0.16" stroke-width="0.742883"/>
<path d="M279.91 182.35V0.349619" stroke="white" stroke-opacity="0.16" stroke-width="0.742883"/>
<path d="M302.822 182.35V0.349619" stroke="white" stroke-opacity="0.16" stroke-width="0.742883"/>
<path d="M325.736 182.35V0.349619" stroke="white" stroke-opacity="0.16" stroke-width="0.742883"/>
<path d="M348.65 182.35V0.349619" stroke="white" stroke-opacity="0.16" stroke-width="0.742883"/>
<path d="M371.564 182.35V0.349619" stroke="white" stroke-opacity="0.16" stroke-width="0.742883"/>
<path d="M394.479 182.35V0.349619" stroke="white" stroke-opacity="0.16" stroke-width="0.742883"/>
<path d="M417.393 182.35V0.349619" stroke="white" stroke-opacity="0.16" stroke-width="0.742883"/>
<path d="M440.305 182.35V0.349619" stroke="white" stroke-opacity="0.16" stroke-width="0.742883"/>
<path d="M463.219 182.35V0.349619" stroke="white" stroke-opacity="0.16" stroke-width="0.742883"/>
</svg>
